<svg viewBox="-3.5 0 48 48" width="32" height="32" version="1.1" xmlns="http://www.w3.org/2000/svg" xmlns:xlink="http://www.w3.org/1999/xlink">
    <title>Apple-color</title>
    <desc>Created with Sketch.</desc>
    <path id="apple_Apple" fill="#000" transform="translate(-204 -560)" d="M231.1747 567.7925c1.5655-2.0208 2.7522-4.877 2.3229-7.7925-2.5585 0.1778-5.5491 1.8148-7.2941 3.9485-1.5907 1.9333-2.8981 4.8092-2.3875 7.6005 2.7971 0.0875 5.6839-1.5889 7.3587-3.7565zM245 595.2172c-1.1194 2.495-1.658 3.6098-3.1 5.8197-2.0115 3.0848-4.8478 6.9261-8.3659 6.9543-3.1224 0.0338-3.9276-2.0462-8.1666-2.0208-4.2391 0.0226-5.1228 2.0603-8.2509 2.0292-3.5152-0.031-6.2028-3.4968-8.2143-6.5817-5.6278-8.6194-6.2197-18.7375-2.7494-24.1197 2.4688-3.8215 6.3628-6.0568 10.0211-6.0568 3.7228 0 6.0654 2.0547 9.1486 2.0547 2.9906 0 4.8113-2.0603 9.1177-2.0603 3.2599 0 6.7134 1.7865 9.171 4.8685-8.0573 4.4424-6.7527 16.0168 1.3887 19.1129z" fill-rule="evenodd" />
</svg>